<mxfile host="app.diagrams.net" agent="Mozilla/5.0 (Windows NT 10.0; Win64; x64; rv:129.0) Gecko/20100101 Firefox/129.0" version="24.7.10">
  <diagram name="Page-1" id="W4YvApNCXR5A6FudypIm">
    <mxGraphModel dx="2062" dy="1207" grid="1" gridSize="10" guides="1" tooltips="1" connect="1" arrows="1" fold="1" page="1" pageScale="1" pageWidth="850" pageHeight="1100" math="0" shadow="0">
      <root>
        <mxCell id="0" />
        <mxCell id="1" parent="0" />
        <mxCell id="aNrNENJhGVUGavfEX417-24" style="edgeStyle=orthogonalEdgeStyle;rounded=0;orthogonalLoop=1;jettySize=auto;html=1;" edge="1" parent="1" source="aNrNENJhGVUGavfEX417-16">
          <mxGeometry relative="1" as="geometry">
            <mxPoint x="60" y="421.5" as="targetPoint" />
          </mxGeometry>
        </mxCell>
        <mxCell id="aNrNENJhGVUGavfEX417-16" value="" style="rounded=1;whiteSpace=wrap;html=1;" vertex="1" parent="1">
          <mxGeometry x="72.37" y="286.5" width="561.75" height="270" as="geometry" />
        </mxCell>
        <mxCell id="aNrNENJhGVUGavfEX417-1" value="" style="outlineConnect=0;dashed=0;verticalLabelPosition=bottom;verticalAlign=top;align=center;html=1;shape=mxgraph.aws3.traditional_server;fillColor=#7D7C7C;gradientColor=none;" vertex="1" parent="1">
          <mxGeometry x="330" y="390" width="46.5" height="63" as="geometry" />
        </mxCell>
        <mxCell id="aNrNENJhGVUGavfEX417-2" value="" style="outlineConnect=0;dashed=0;verticalLabelPosition=bottom;verticalAlign=top;align=center;html=1;shape=mxgraph.aws3.traditional_server;fillColor=#7D7C7C;gradientColor=none;" vertex="1" parent="1">
          <mxGeometry x="500" y="390" width="46.5" height="63" as="geometry" />
        </mxCell>
        <mxCell id="aNrNENJhGVUGavfEX417-3" value="" style="outlineConnect=0;dashed=0;verticalLabelPosition=bottom;verticalAlign=top;align=center;html=1;shape=mxgraph.aws3.traditional_server;fillColor=#7D7C7C;gradientColor=none;" vertex="1" parent="1">
          <mxGeometry x="410" y="390" width="46.5" height="63" as="geometry" />
        </mxCell>
        <mxCell id="aNrNENJhGVUGavfEX417-4" value="" style="outlineConnect=0;dashed=0;verticalLabelPosition=bottom;verticalAlign=top;align=center;html=1;shape=mxgraph.aws3.traditional_server;fillColor=#7D7C7C;gradientColor=none;" vertex="1" parent="1">
          <mxGeometry x="240" y="390" width="46.5" height="63" as="geometry" />
        </mxCell>
        <mxCell id="aNrNENJhGVUGavfEX417-5" value="" style="outlineConnect=0;dashed=0;verticalLabelPosition=bottom;verticalAlign=top;align=center;html=1;shape=mxgraph.aws3.traditional_server;fillColor=#7D7C7C;gradientColor=none;" vertex="1" parent="1">
          <mxGeometry x="160" y="390" width="46.5" height="63" as="geometry" />
        </mxCell>
        <mxCell id="aNrNENJhGVUGavfEX417-6" value="" style="outlineConnect=0;dashed=0;verticalLabelPosition=bottom;verticalAlign=top;align=center;html=1;shape=mxgraph.aws3.traditional_server;fillColor=#FF0000;strokeColor=#36393d;fillStyle=auto;" vertex="1" parent="1">
          <mxGeometry x="740" y="180" width="46.5" height="63" as="geometry" />
        </mxCell>
        <mxCell id="aNrNENJhGVUGavfEX417-17" value="VULTR" style="text;html=1;align=center;verticalAlign=middle;whiteSpace=wrap;rounded=0;" vertex="1" parent="1">
          <mxGeometry x="153.25" y="310" width="60" height="30" as="geometry" />
        </mxCell>
        <mxCell id="aNrNENJhGVUGavfEX417-18" value="Elastic &amp;amp; Kibana" style="text;html=1;align=center;verticalAlign=middle;whiteSpace=wrap;rounded=0;" vertex="1" parent="1">
          <mxGeometry x="153.25" y="460" width="60" height="30" as="geometry" />
        </mxCell>
        <mxCell id="aNrNENJhGVUGavfEX417-19" value="Ubuntu Server SSH Enabled" style="text;html=1;align=center;verticalAlign=middle;whiteSpace=wrap;rounded=0;" vertex="1" parent="1">
          <mxGeometry x="403.25" y="480" width="60" height="30" as="geometry" />
        </mxCell>
        <mxCell id="aNrNENJhGVUGavfEX417-20" value="Windows Server RDP Enabled" style="text;html=1;align=center;verticalAlign=middle;whiteSpace=wrap;rounded=0;" vertex="1" parent="1">
          <mxGeometry x="286.5" y="480" width="60" height="30" as="geometry" />
        </mxCell>
        <mxCell id="aNrNENJhGVUGavfEX417-21" value="Fleet Server" style="text;html=1;align=center;verticalAlign=middle;whiteSpace=wrap;rounded=0;" vertex="1" parent="1">
          <mxGeometry x="500" y="480" width="60" height="30" as="geometry" />
        </mxCell>
        <mxCell id="aNrNENJhGVUGavfEX417-22" value="Ticket Server" style="text;html=1;align=center;verticalAlign=middle;whiteSpace=wrap;rounded=0;" vertex="1" parent="1">
          <mxGeometry x="403.25" y="310" width="60" height="30" as="geometry" />
        </mxCell>
        <mxCell id="aNrNENJhGVUGavfEX417-23" value="C2 Server" style="text;html=1;align=center;verticalAlign=middle;whiteSpace=wrap;rounded=0;" vertex="1" parent="1">
          <mxGeometry x="733.25" y="260" width="60" height="30" as="geometry" />
        </mxCell>
      </root>
    </mxGraphModel>
  </diagram>
</mxfile>
